<svg xmlns="http://www.w3.org/2000/svg" width="32" height="32" viewBox="0 0 32 32">
  <g id="组_1" data-name="组 1" transform="translate(-799 -25)">
    <g id="_2571304844448" data-name=" 2571304844448" transform="translate(799 28)">
      <path id="路径_3348" data-name="路径 3348" d="M340.521,170h5.29a.522.522,0,0,1,.522.522v5.289a.522.522,0,0,1-.522.522h-5.29a.521.521,0,0,1-.521-.522v-5.289a.521.521,0,0,1,.521-.522Z" transform="translate(-327.333 -163.667)" fill="#ff001a"/>
      <path id="路径_3349" data-name="路径 3349" d="M.521,170h5.29a.522.522,0,0,1,.522.522v5.289a.522.522,0,0,1-.522.522H.521A.521.521,0,0,1,0,175.811v-5.289A.521.521,0,0,1,.521,170Z" transform="translate(0 -163.667)" fill="#ff001a"/>
      <path id="路径_3350" data-name="路径 3350" d="M680.521,170h5.29a.522.522,0,0,1,.522.522v5.289a.522.522,0,0,1-.522.522h-5.29a.521.521,0,0,1-.521-.522v-5.289a.521.521,0,0,1,.521-.522Z" transform="translate(-654.667 -163.667)" fill="#ff001a"/>
      <path id="路径_3351" data-name="路径 3351" d="M170.521,340h5.29a.522.522,0,0,1,.522.522v5.289a.522.522,0,0,1-.522.522h-5.29a.521.521,0,0,1-.521-.522v-5.289a.521.521,0,0,1,.521-.522Z" transform="translate(-163.667 -327.333)" fill="#ff001a"/>
      <path id="路径_3352" data-name="路径 3352" d="M340.521,510h5.29a.522.522,0,0,1,.522.522v5.289a.522.522,0,0,1-.522.522h-5.29a.521.521,0,0,1-.521-.522v-5.289a.521.521,0,0,1,.521-.522Z" transform="translate(-327.333 -491)" fill="#ff001a"/>
      <path id="路径_3353" data-name="路径 3353" d="M510.521,340h5.29a.522.522,0,0,1,.522.522v5.289a.522.522,0,0,1-.522.522h-5.29a.521.521,0,0,1-.521-.522v-5.289a.521.521,0,0,1,.521-.522Z" transform="translate(-491 -327.333)" fill="#ff001a"/>
      <path id="路径_3354" data-name="路径 3354" d="M170.521,0h5.29a.522.522,0,0,1,.522.522V5.811a.522.522,0,0,1-.522.522h-5.29A.521.521,0,0,1,170,5.811V.522A.521.521,0,0,1,170.521,0Z" transform="translate(-163.667 0)" fill="#ff001a"/>
      <path id="路径_3355" data-name="路径 3355" d="M510.521,0h5.29a.522.522,0,0,1,.522.522V5.811a.522.522,0,0,1-.522.522h-5.29A.521.521,0,0,1,510,5.811V.522A.521.521,0,0,1,510.521,0Z" transform="translate(-491 0)" fill="#ff001a"/>
    </g>
    <rect id="矩形_1" data-name="矩形 1" width="32" height="32" transform="translate(799 25)" fill="none"/>
  </g>
</svg>
